# xmcd
#
# Track frame offsets:
#	150
#	13120
#	30920
#	45857
#	61660
#	77747
#	95062
#	110835
#	128047
#	142592
#	157352
#	178340
#	194042
#	207147
#	224297
#	243510
#
# Disc length: 3667 seconds
#
# Revision: 2
# Processed by: cddbd v1.5.2PL0 Copyright (c) Steve Scherf et al.
# Submitted via: audiograbber 1.83.01
#
DISCID=df0e5110
DTITLE=Julian Dawson - Live On The Radio
DYEAR=1900
DGENRE=
TTITLE0=Where Are All The Lonely Girls
TTITLE1=As Real As Disneyland
TTITLE2=When Hearts Collide
TTITLE3=Luckiest Man In The Western World
TTITLE4=Shrink
TTITLE5=Blue Fingers
TTITLE6=Stone Deaf Dumb and Blind
TTITLE7=Two Shots Of Jealousy
TTITLE8=I Like Your Absence
TTITLE9=Sportin  Life Blues
TTITLE10=Time Passes Slowly
TTITLE11=Cold Cold World
TTITLE12=Prince In This World
TTITLE13=Boulder To Brimingham
TTITLE14=Steal That Beat
TTITLE15=Spark Of Human Kindness - Slipping Away
EXTD=
EXTT0=
EXTT1=
EXTT2=
EXTT3=
EXTT4=
EXTT5=
EXTT6=
EXTT7=
EXTT8=
EXTT9=
EXTT10=
EXTT11=
EXTT12=
EXTT13=
EXTT14=
EXTT15=
PLAYORDER=
